# xmcd CD database file
#
# Track frame offsets:
#	150
#	24242
#	49932
#	70855
#	83980
#	103330
#	128980
#	158755
#	183317
#	199257
#	222917
#
# Disc length: 3304 seconds
#
# Revision: 2
# Processed by: cddbd v1.4b41PL1 Copyright (c) Steve Scherf et al.
# Submitted via: Feurio! 1.51.2ß - http://www.feurio.com
#
DISCID=9b0ce60b
DTITLE=Joe McBride - Grace
DYEAR=1900
DGENRE=
TTITLE0=Se or Amor
TTITLE1=Twilight
TTITLE2=Sunny
TTITLE3=For All we Know
TTITLE4=Everlasting Love
TTITLE5=Central Expressway
TTITLE6=Clay and Ivory
TTITLE7=Grace
TTITLE8=Get on The Right Track
TTITLE9=Need Somebody to Love
TTITLE10=Chump Change
EXTD=
EXTT0=
EXTT1=
EXTT2=
EXTT3=
EXTT4=
EXTT5=
EXTT6=
EXTT7=
EXTT8=
EXTT9=
EXTT10=
PLAYORDER=
